# xmcd
#
# Track frame offsets: 
#        150
#        17505
#        36472
#        50007
#        61692
#        83925
#        98927
#        113087
#        124870
#        139755
#        155112
#        168302
#        181747
#        194605
#
# Disc length: 2727 seconds
#
# Revision: 2
# Processed by: cddbd v1.5.2PL0 Copyright (c) Steve Scherf et al.
# Submitted via: ExactAudioCopy v0.99pb5
#
DISCID=bf0aa50e
DTITLE=Cornelis Vreeswijk - Hommager and Pamfletter {Rem and Exp 2003}
DYEAR=1982
DGENRE=Folk
TTITLE0=Pamflett Nr 8 (Ballad Om En Lergök)
TTITLE1=Blues För Ett Torn (Papperskvarnen)
TTITLE2=Luchin
TTITLE3=Hommage
TTITLE4=Blues För Jacques Brel
TTITLE5=Till Julia
TTITLE6=Sambaliten
TTITLE7=Pamflett 53
TTITLE8=Pamflett 68 (Vals För Ingens Hundar)
TTITLE9=Pamflett Nr 62 (Ta En Moralkaka Till)
TTITLE10=Hommage För Sveriges Radio
TTITLE11=Pamflett 31 (Blues För Göteborg)
TTITLE12=Till Julia (Outgiven Version)
TTITLE13=50-Öres Blues (Outgiven Version)
EXTD=
EXTT0=
EXTT1=
EXTT2=
EXTT3=
EXTT4=
EXTT5=
EXTT6=
EXTT7=
EXTT8=
EXTT9=
EXTT10=
EXTT11=
EXTT12=
EXTT13=
PLAYORDER=
